# xmcd
#
# Track frame offsets:
#	300
#	14862
#	41775
#	59515
#	79673
#	102910
#	126484
#	138002
#	150254
#	162478
#	177988
#	195911
#	221631
#	243081
#	265284
#
# Disc length: 3736 seconds
#
# Revision: 0
# Processed by: cddbd v1.5.2PL0 Copyright (c) Steve Scherf et al.
# Submitted via: EasyCDDAExtractor 5.0.2.1
#
DISCID=d10e940f
DTITLE=Fonda 500 - Je m'appelle stereo
DYEAR=1900
DGENRE=
TTITLE0=Music should always be played by the hands of animals
TTITLE1=Je m'appelle stereo
TTITLE2=Electronique bee 101
TTITLE3=Jenny #1
TTITLE4=Meet the bear
TTITLE5=Start of the song
TTITLE6=I love stereo cos stereo's good for me
TTITLE7=Everything is connected
TTITLE8=Come alight
TTITLE9=The sounds sound warmer when the sound is shared with you
TTITLE10=Push button skillz
TTITLE11=Silver sounds
TTITLE12=Super dots and lights
TTITLE13=And sleep
TTITLE14=(Data track)
EXTD=
EXTT0=
EXTT1=
EXTT2=
EXTT3=
EXTT4=
EXTT5=
EXTT6=
EXTT7=
EXTT8=
EXTT9=
EXTT10=
EXTT11=
EXTT12=
EXTT13=
EXTT14=
PLAYORDER=
